<!DOCTYPE svg PUBLIC "-//W3C//DTD SVG 1.1//EN" "http://www.w3.org/Graphics/SVG/1.1/DTD/svg11.dtd">
<!-- Uploaded to: SVG Repo, www.svgrepo.com, Transformed by: SVG Repo Mixer Tools -->
<svg fill="#007da3" version="1.1" id="Capa_1" xmlns="http://www.w3.org/2000/svg" xmlns:xlink="http://www.w3.org/1999/xlink" width="800px" height="800px" viewBox="0 0 400.949 400.949" xml:space="preserve" stroke="#007da3">
<g id="SVGRepo_bgCarrier" stroke-width="0"/>
<g id="SVGRepo_tracerCarrier" stroke-linecap="round" stroke-linejoin="round"/>
<g id="SVGRepo_iconCarrier"> <g> <path d="M180.512,329.314c0-8.043,4.941-16.056,23.229-16.056c18.794,0,23.242,8.013,23.242,16.056c0,8.054-10.41,14.6-23.242,14.6 S180.512,337.368,180.512,329.314z M189.048,283.948c0-4.773-2.77-8.647-6.185-8.647s-6.185,3.874-6.185,8.647 s2.77,8.643,6.185,8.643C186.281,292.591,189.048,288.722,189.048,283.948z M180.142,172.304c0,0-32.141-5.969-63.777,31.59 c-31.644,37.607-61.312,82.091,0,85.057C177.668,291.926,180.142,172.304,180.142,172.304z M222.672,172.304 c0,0,2.468,119.622,63.79,116.656c61.312-2.976,31.636-47.459,0-85.056C254.82,166.327,222.672,172.304,222.672,172.304z M230.822,283.948c0-4.773-2.768-8.647-6.18-8.647s-6.18,3.874-6.18,8.647s2.768,8.643,6.18,8.643S230.822,288.722,230.822,283.948 z M35.087,234.037c3.354-1.752,4.07-7.023,1.594-11.771c-2.478-4.748-7.206-7.181-10.562-5.429 c-3.354,1.752-4.07,7.018-1.595,11.766C27.002,233.352,31.73,235.784,35.087,234.037z M25.979,234.799 c-2.481-4.748-7.208-7.176-10.565-5.424c-3.354,1.752-4.067,7.023-1.589,11.771c2.478,4.748,7.208,7.176,10.564,5.424 C27.744,244.817,28.458,239.546,25.979,234.799z M44.849,234.017c3.356,1.747,8.082-0.681,10.555-5.429 c2.47-4.748,1.751-10.014-1.605-11.761c-3.359-1.746-8.084,0.686-10.555,5.429C40.774,227.004,41.49,232.27,44.849,234.017z M64.531,229.38c-3.356-1.752-8.087,0.676-10.564,5.424c-2.481,4.748-1.768,10.019,1.587,11.771 c3.356,1.752,8.086-0.675,10.564-5.423S67.885,231.132,64.531,229.38z M52.293,248.91c0.125-0.609,0.19-1.259,0.19-1.914 c0-5.718-5.984-11.705-11.702-11.705c-5.723,0-11.695,5.987-11.695,11.705c0,0.645,0.063,1.27,0.17,1.884 c-3.712,0.183-5.334,4.56-5.334,8.317c0,3.885,3.151,7.018,7.025,7.018c3.511,0,8.82-2.381,9.635-2.589 c4.164,2.173,6.155,2.589,9.62,2.589c3.89,0,7.023-3.138,7.023-7.018C57.219,253.582,55.815,249.301,52.293,248.91z M65.146,143.715c3.357-1.754,4.065-7.023,1.584-11.771c-2.48-4.746-7.21-7.173-10.565-5.421 c-3.356,1.754-4.064,7.022-1.584,11.768C57.062,143.04,61.792,145.467,65.146,143.715z M54.426,156.234 c3.354-1.749,4.07-7.015,1.594-11.76s-7.203-7.173-10.56-5.421c-3.354,1.75-4.07,7.015-1.595,11.761 C46.342,155.56,51.069,157.986,54.426,156.234z M74.891,143.71c3.354,1.752,8.086-0.676,10.564-5.424 c2.478-4.748,1.767-10.019-1.589-11.771s-8.086,0.678-10.565,5.426C70.823,136.689,71.534,141.958,74.891,143.71z M83.99,144.477 c-2.48,4.748-1.77,10.019,1.587,11.771s8.086-0.678,10.564-5.426s1.767-10.016-1.587-11.768 C91.198,137.301,86.468,139.729,83.99,144.477z M87.258,166.888c0-3.628-1.407-7.901-4.936-8.292 c0.124-0.606,0.192-1.259,0.192-1.912c0-5.718-5.986-11.705-11.705-11.705c-5.723,0-11.702,5.987-11.702,11.705 c0,0.645,0.063,1.267,0.17,1.881c-3.705,0.186-5.324,4.565-5.324,8.323c0,3.879,3.15,7.015,7.022,7.015 c3.504,0,8.82-2.392,9.628-2.582c4.172,2.166,6.162,2.582,9.628,2.582C84.114,173.903,87.258,170.76,87.258,166.888z M317.306,150.367c3.356-1.752,4.067-7.021,1.584-11.769c-2.478-4.745-7.211-7.175-10.562-5.421 c-3.356,1.752-4.067,7.021-1.584,11.769C309.221,149.694,313.954,152.121,317.306,150.367z M306.561,162.92 c3.361-1.752,4.077-7.023,1.6-11.771c-2.479-4.748-7.206-7.178-10.567-5.423c-3.362,1.755-4.078,7.023-1.6,11.771 C298.471,162.244,303.204,164.674,306.561,162.92z M327.05,150.377c3.356,1.752,8.084-0.675,10.562-5.423 c2.483-4.748,1.772-10.019-1.585-11.771c-3.356-1.752-8.089,0.678-10.566,5.426C322.982,143.357,323.693,148.625,327.05,150.377z M336.14,151.162c-2.479,4.748-1.768,10.016,1.589,11.768c3.357,1.752,8.085-0.675,10.567-5.423 c2.479-4.748,1.768-10.017-1.589-11.771C343.351,143.984,338.617,146.414,336.14,151.162z M339.415,173.551 c0-3.628-1.417-7.901-4.937-8.293c0.122-0.606,0.193-1.259,0.193-1.914c0-5.715-5.986-11.702-11.705-11.702 c-5.723,0-11.704,5.987-11.704,11.702c0,0.647,0.065,1.27,0.173,1.884c-3.702,0.186-5.327,4.562-5.327,8.323 c0,3.879,3.148,7.015,7.022,7.015c3.504,0,8.815-2.392,9.628-2.582c4.175,2.166,6.165,2.582,9.628,2.582 C336.262,180.565,339.415,177.43,339.415,173.551z M345.539,226.344c2.478,4.748,7.205,7.175,10.562,5.423 c3.356-1.752,4.067-7.022,1.589-11.766c-2.478-4.748-7.206-7.18-10.562-5.423C343.771,216.325,343.061,221.596,345.539,226.344z M346.991,232.56c-2.473-4.743-7.2-7.176-10.558-5.424c-3.356,1.747-4.072,7.013-1.6,11.761c2.474,4.743,7.201,7.175,10.558,5.423 C348.748,242.573,349.464,237.307,346.991,232.56z M365.876,231.757c3.356,1.747,8.084-0.681,10.562-5.429 c2.478-4.747,1.762-10.019-1.595-11.771c-3.356-1.747-8.084,0.681-10.557,5.429C361.809,224.734,362.52,230.005,365.876,231.757z M385.543,227.131c-3.352-1.757-8.079,0.67-10.557,5.418c-2.483,4.748-1.777,10.014,1.574,11.766s8.079-0.675,10.557-5.423 C389.601,234.148,388.895,228.878,385.543,227.131z M373.3,246.641c0.122-0.614,0.184-1.26,0.184-1.915 c0-5.713-5.978-11.699-11.695-11.699c-5.723,0-11.699,5.986-11.699,11.699c0,0.65,0.061,1.27,0.167,1.879 c-3.701,0.193-5.326,4.565-5.326,8.323c0,3.885,3.143,7.022,7.018,7.022c3.509,0,8.82-2.392,9.633-2.59 c4.169,2.174,6.165,2.59,9.633,2.59c3.88,0,7.013-3.138,7.013-7.022C378.216,251.312,376.819,247.036,373.3,246.641z M136.136,70.097c16.237,11.751,29.354,21.302,29.354,21.302l-11.235,34.492c-6.177,19.058,1.953,24.961,18.182,13.195 c16.174-11.778,29.308-21.325,29.308-21.325l29.323,21.325c16.203,11.766,24.318,5.87,18.144-13.195 c-6.195-19.063-11.197-34.492-11.197-34.492l29.351-21.302c16.184-11.763,13.086-21.322-6.937-21.322c-20.032,0-36.246,0-36.246,0 l-11.232-34.487c-6.181-19.05-16.225-19.05-22.395,0c-6.215,19.056-11.22,34.487-11.22,34.487H143.06 C123.042,48.774,119.93,58.334,136.136,70.097z M298.405,328.624c-7.073-8.14-23.815-7.86-37.399,0.604 c-3.88,2.422-7.094,5.266-9.531,8.262h-13.599c-3.047,12.157-16.931,21.094-34.119,21.094c-17.182,0-31.06-8.937-34.111-21.094 h-13.599c-2.438-3.001-5.642-5.84-9.529-8.262c-13.594-8.465-30.331-8.744-37.399-0.604c-7.071,8.146-1.775,21.607,11.801,30.077 c1.952,1.203,3.966,2.249,5.994,3.118c-2.036,0.878-4.042,1.914-5.994,3.128c-13.576,8.475-18.873,21.932-11.801,30.066 c7.068,8.14,23.813,7.871,37.399-0.599c3.887-2.423,7.092-5.262,9.529-8.258h95.428c2.438,2.996,5.631,5.835,9.531,8.258 c13.589,8.475,30.326,8.738,37.399,0.599c7.059-8.135,1.772-21.597-11.812-30.066c-1.945-1.214-3.956-2.255-5.987-3.128 c2.036-0.869,4.042-1.915,5.987-3.118C300.178,350.231,305.464,336.77,298.405,328.624z"/> </g> </g>
</svg>